<?xml version="1.0" standalone="no"?>
<!DOCTYPE svg PUBLIC "-//W3C//DTD SVG 20010904//EN"
 "http://www.w3.org/TR/2001/REC-SVG-20010904/DTD/svg10.dtd">
<svg version="1.0" xmlns="http://www.w3.org/2000/svg"
 width="447.000000pt" height="423.000000pt" viewBox="0 0 447.000000 423.000000"
 preserveAspectRatio="xMidYMid meet">

<g transform="translate(0.000000,423.000000) scale(0.100000,-0.100000)"
fill="#000000" stroke="none">
<path d="M1970 4005 c-389 -53 -763 -199 -1046 -408 -373 -275 -668 -727 -753
-1152 -55 -278 -47 -510 30 -788 80 -288 198 -504 412 -752 288 -335 645 -558
1064 -664 273 -69 570 -82 832 -37 457 80 774 232 1084 521 262 244 431 493
540 797 82 228 102 343 102 598 0 174 -4 222 -23 317 -44 220 -134 431 -275
646 -149 225 -321 404 -533 553 -405 283 -981 431 -1434 369z m505 -151 c272
-41 571 -157 794 -306 174 -117 382 -318 503 -489 121 -169 236 -428 283 -639
22 -98 30 -356 16 -488 -39 -356 -153 -621 -400 -929 -78 -98 -255 -264 -352
-330 -245 -169 -495 -269 -804 -323 -238 -42 -461 -37 -721 15 -362 73 -681
246 -968 524 -59 58 -127 131 -151 161 -177 230 -294 484 -352 759 -22 108
-26 151 -26 296 1 246 31 391 134 637 99 236 189 369 379 558 259 260 522 412
879 510 97 26 260 54 371 64 80 7 312 -4 415 -20z"/>
<path d="M2036 3749 c-108 -11 -218 -31 -312 -57 -210 -59 -472 -187 -638
-311 -103 -78 -289 -265 -356 -359 -102 -143 -220 -379 -260 -525 -75 -267
-67 -578 21 -853 41 -129 156 -353 236 -459 130 -174 343 -366 529 -478 171
-103 404 -194 563 -222 221 -37 395 -43 593 -20 162 19 192 26 366 81 211 68
384 162 568 309 249 200 483 554 560 849 50 189 67 475 39 634 -53 306 -209
607 -434 845 -149 157 -286 257 -497 363 -312 158 -680 234 -978 203z m242
-238 c49 -25 86 -66 111 -121 96 -211 -165 -405 -345 -257 -93 77 -101 240
-16 331 60 64 175 85 250 47z m859 -366 c57 -17 119 -71 146 -127 22 -47 23
-148 1 -191 -70 -139 -243 -174 -352 -73 -58 54 -75 99 -70 186 5 90 27 132
87 174 67 47 110 54 188 31z m-1741 -14 c51 -23 111 -93 125 -145 23 -84 -16
-198 -84 -247 -163 -118 -377 14 -353 219 7 63 23 97 64 135 59 56 170 73 248
38z m962 -421 c193 -54 345 -179 427 -351 86 -182 84 -350 -7 -538 -102 -207
-357 -371 -579 -371 -129 0 -325 69 -427 152 -144 115 -241 322 -241 513 -1
144 63 297 171 411 106 111 227 179 363 204 72 13 208 4 293 -20z m1282 -429
c27 -16 57 -46 75 -75 26 -43 30 -59 30 -120 0 -60 -4 -79 -28 -118 -35 -60
-96 -97 -171 -105 -146 -15 -268 128 -235 275 13 61 40 103 86 135 76 52 165
55 243 8z m-2688 8 c146 -74 171 -264 50 -370 -74 -65 -153 -76 -240 -33 -125
62 -166 219 -89 336 51 77 192 111 279 67z m431 -805 c57 -19 122 -89 138
-148 12 -46 5 -126 -16 -166 -18 -35 -80 -89 -121 -106 -48 -20 -128 -18 -172
5 -98 51 -145 153 -122 266 26 124 163 194 293 149z m1807 -18 c58 -38 103
-109 108 -172 6 -67 -11 -117 -57 -167 -91 -101 -243 -104 -326 -5 -41 48 -55
90 -55 160 1 107 43 169 139 205 54 20 144 10 191 -21z m-892 -362 c48 -28 98
-98 108 -151 30 -162 -135 -312 -287 -262 -130 44 -191 208 -125 335 14 27 37
58 52 68 71 51 175 55 252 10z"/>
<path d="M2102 2599 c-230 -34 -402 -206 -433 -437 -21 -153 31 -310 139 -419
208 -211 567 -204 764 16 98 108 138 212 138 353 0 152 -59 269 -186 366 -85
66 -149 96 -247 116 -83 17 -84 18 -175 5z"/>
</g>
</svg>
